<svg xmlns="http://www.w3.org/2000/svg" width="512" height="512">
<path fill="#fff" d="M391 66c-10 3-20 9-27 17-4 4-9 13-8 13 2 1 9-2 11-5 6-6 8-8 15-11 8-4 12-5 20-5 21 0 36 16 34 38-1 7-3 12-7 18-8 13-17 18-31 17s-28-10-32-21c-2-6-3-6-7-2s-4 5-2 9c7 9 14 15 25 20l7 4h9c8 0 10 0 14-2a46 46 0 0 0 19-79 40 40 0 0 0-40-11zM263 89l-7 21 2 3c5 5 5 6 4 12s-1 6 1 7l1 18c-1 16-1 27 1 27l2-3 1-22 1-21 1-6c-1-8-2-7 1-10 4-5 4-5 1-14l-7-15-2 3z"/>
<path fill="#fff" d="M368 98c-6 2-17 8-23 13l-6 5h-7c-6 0-7 1-12 3-16 8-31 25-44 50-10 19-17 28-26 33-8 4-17 3-22-3-4-4-4-8-1-13 3-6 3-9 0-15-2-4-3-5-7-7-6-4-7-6-7-8 0-4 2-7 11-16 7-7 9-9 11-14 6-13 3-22-9-22-5 0-17 2-25 5a198 198 0 0 0-76 52c-7 8-17 17-22 20-10 5-20 5-30-1-4-2-4 0 0 4 7 6 19 10 28 8h4l-3 2c-7 4-12 8-17 15-13 15-22 28-31 48-12 24-16 36-16 50 0 12 3 21 10 28 5 5 11 9 15 8h2l-3-1-5-4c-14-13-14-34-1-57a162 162 0 0 1 41-43l-4 6c-4 7-11 20-12 26l-2 13c0 9 1 9 3 14 2 4 6 9 7 8s0-3-1-5c-2-5-2-13 0-18 1-5 7-15 12-23 8-10 27-27 30-26l-2 4c-4 4-8 14-10 20-1 6-2 16 0 21 1 3 5 9 7 10s2 0 0-3c-2-4-3-8-2-13a40 40 0 0 1 23-28 101 101 0 0 1 22-7l-1 1c-11 9-14 15-15 26l1 8 2 2v-3c2-12 13-21 23-21 4 0 5 0 6 2 2 2 2 2 1 6s-5 11-10 17c-8 10-11 15-13 20a85 85 0 0 1-31 43 95 95 0 0 1-36 14l2 2c2 1 4 2 11 2 8 0 11 0 8 1-9 2-40 17-48 21-7 4-16 12-17 15v2l5 1 7 1-4 7c-5 6-8 10-8 13v3l3-2h3l-1 4-1 7v3l6-3c7-3 9-4 8-2l-4 15c-4 14-5 21-3 23 2 1 2 1 6-3l11-7c8-3 11-6 19-13l5-5v5l-2 11-1 6 3-1 14-13 4-5 2 11 1 7c1 1 7-4 11-8l6-9 3-5 2 3c0 2 5 8 6 8l1-5c1-11 8-51 10-56 1-2 1-1 3 4l3 8 5 5v-10a55 55 0 0 1 15-41c5-5 8-6 19-10a270 270 0 0 0 53-26 872 872 0 0 1 3 34l-1 32-2 7-7 16-5 9v11c-4 47-4 48-8 52-3 4 2 3 6-1 3-2 14-16 15-18 1-3 1 1 1 16v17h5v-34l5 7c7 10 12 15 16 15 3 1 4 0 1-2l-3-4-4-41-1-18-3-7-6-12c-5-13-5-11-5-47v-33l4-2 23-18c7-6 13-14 17-24 5-11 7-18 9-28l3-13c2-5 2-5 1-16 0-10 0-13 2-9l7 7-1-5c-2-6-3-13-1-21l4-13 3 4c1 3 5 7 6 6l-1-4c-1-4 0-13 3-21v-3l2 3c2 4 4 5 5 4l-1-2-1-4 3-12 1-2c0-2-5-8-6-8l-2-1-1-2c2-3 20-21 25-24s10-5 13-5l1-1c-1-4-10-6-18-3z"/>
<path fill="#fff" d="M379 116a268 268 0 0 1-9 8l3 5c2 0 8-6 10-10l2-5-6 2zM368 181l-3 5c-2 3-2 4-1 11 0 8 0 11-4 16-4 6-5 9-4 14 1 7 1 8-1 11s-5 4-8 4c-4 0-7 0-10-4-3-3-6-3-7-1l-3 9c-3 15-7 26-15 37l-5 8c-2 2-2 5-1 18 1 9 1 10-1 15-2 7-5 10-13 13-2 0 0 2 4 2 8 0 16-7 20-17l7-12 1 5 2 12c7 23 3 40-9 47-3 1-3 2-1 2l6-1c5-2 10-7 13-14 3-5 6-15 7-22 0-4 1-4 2-1a102 102 0 0 1-5 62c-4 9-8 14-14 17l-4 3h3c5 1 14-5 20-13 5-7 10-16 13-25l3-7 1 15c1 23-2 36-8 50-9 18-18 27-29 30-6 1-10 1-14-1l-4-2 2 3c7 7 22 6 33-1s26-27 37-49a418 418 0 0 0 25-76v-6l1 3c4 6 9 13 13 15 6 4 6 3 1-6-7-13-7-20-5-40a562 562 0 0 0 0-57c-5-27-10-45-17-56-4-5-10-12-16-15-4-3-9-3-12-1z"/>
</svg>