<svg width="500" height="92" xmlns="http://www.w3.org/2000/svg">
  <path d="m49.6 6-6.1 5.9-.1-2.7c.1-3.7.1-4 1.5-5.3l1.8-2 .7-1h-2.6l-6.6.1c-5.2.3-6.1.3-6.8 0l-1.4.1c-.7.3-1.2.3-3.6.3h-7.7a27 27 0 0 0-6.6.2l-.9 1.1a17 17 0 0 1-4 4.2L0 13.5l1.8-.3c2.9-.6 3.7-.6 19-1h12.7c.2 0-1.2 1.4-5.2 5.2-4.4 4.1-5.4 5-5.2 5 .5.3.6 1.5.8 5.6.1 3.2.1 3.6-.4 4.5L20 35.9c-4.4 4.4-5.2 5-6.4 6.6-1.2 1.3-1.6 2-1.8 3-.2.9-.1 1 .4.6a8 8 0 0 1 4.6-.4c.6.2.8.3 1.3.9 1.2 1.2 2.3 2.8 3 4.6A48 48 0 0 1 23 66.4c.5 9.6.5 9.5.7 9.5l1.2-1.5c2.7-3.9 6-7.2 9.9-10l.4-.4 2.6 2.8 2.2 2.8.5-.5 5.4-4.8 5-4.6-2-1.8a29 29 0 0 1-4.3-4.6c-1.3-2-1.6-3.3-1.8-13.7l-.3-8.2c-.3-3.7-.4-5.4-.2-8.2l.3-3.3c0-1.6 0-2.6.5-3.4.4-.8 1.6-2.2 2.3-2.4.8-.4 1-.3 3.6 2.6l5.5 5.7 3 3.2-.5.8c-1.5 2.1-3.2 4-7.4 8.2L45 39l.7 1c.7.9.8 1 .8.8a4 4 0 0 1 2-2.2c.1-.2 1.5-.2 6.8-.5l10.2-.5c.9.2 1.5.9 1.5 1.8l-.4 1.8a107.5 107.5 0 0 0-.4 26l.2 5.8c.1 3.1.1 3.2-.6 3.8-.3.2-.4.2-2.5.4h-7.9c-6-.2-11.8-.2-17.7 0l-6-.2H16.8c-2.1-.4-3.4 0-5.2 1-.8.6-2.3 2-5.4 5.3L2.9 87c-.4.4-.5 1.7-.4 2.4v.4h.8l1.3-.2h1.1l1.2.2h37c11.8 0 11.4 0 13.1-1 1-.6 1.5-1 4.5-4.2 5-5.2 10.2-10 15.9-14.5l1.1-.9v-2.5c-.4-6.3-1-23.2-.9-28.4.1-5 .5-6 2.5-8.3 1.2-1 2.3-2.8 2.2-3l-2 .1c-2.8.2-16.3.4-18.8.1-2 0-2.3 0-2.3-.3l2.3-2L70 17c.2-.5-.2-.8-1.2-1.6-1.7-1.2-5.8-5-8.1-7.4-2-2-2.8-3-4-5.7L55.5 0l-6 6Zm-9.4 4.2c0 1.5-.4 5-.6 5.5l-2 2c-2.1 1.9-2.5 2.1-2.5 2l-.2-1c-.3-2 .4-4 1.8-6 .8-1 3.1-3.4 3.4-3.4v.9ZM40 20.4v30.8l-.2.9-1.2 1a36.3 36.3 0 0 0-4.7 5c-.3-9.3-.3-18.7.1-28 .1-5.7.1-5.6 1.3-6.9l4.4-4 .3 1.2ZM406 .6c-3.5 3.4-7 7-10.3 10.6l2.4 2.4c2.3 2.7 5 5.4 8.6 8.3 2.6 2 5 4.3 7.2 6.7 1.5 1.3 3.2 3 3.2 3.1a299 299 0 0 1-12.4 12c0 .2.9.6 1.3.6.6.1.8.2 1 1.3l.3 15c0 13.3.1 14.4.2 15 .4.6.3 1.2-.2 1.7l-.3.4 1.2.8c5.4 3.8 10.7 7.8 15.8 12l1-.3c7-6.7 13.7-13.5 20.4-20.5v-1.4l-.1-18c0-13.3-.1-17.2-.2-17.2l-.7-.1-12-9.7-2.1-1.8-2.6-2.3c-7.1-5.8-13.8-12-20.2-18.6-.4-.4-1-.4-1.5 0ZM420.7 34c1 .7 2 1.5 4.3 3.7l8.1 7.2.3 16.4c-.2 6-.1 11.8.2 17.7l-5.8-5.2a37 37 0 0 0-7.4-5.6c-.8-.7-.8-.8-.9-6.4l-.2-8.1c-.2-6.8-.3-13.7-.1-20.5l1.5.8ZM278.4 1.5c-1 .1-1 .1-1.3.7-.3.5-.5 23.8-.3 40.8.2 9.2.1 18.3-.2 27.4v7.5l.2.4 3.8 2.2 7 3.9c3.8 2.1 4 2.2 4.8 1.7l18.3-17.2v-5.5l-.1-14c-.4-3.6-.3-7.2.2-10.8-.4.2-.1.3-2-2a24 24 0 0 0-4.8-5.1 12 12 0 0 1-4-4.8l-3 2.8c-5.1 5-7.9 7.6-8.3 7.8-.4.1-.4.1-.6-.3a46 46 0 0 1-.6-10.7c-.2-16.1 0-19.7.5-22 .2-1 .5-2 1-3l-10.6.2Zm11.2 37.9a31 31 0 0 1 8.6 7.5 22 22 0 0 1 1 6.2c.3 4.2.4 15.6.3 20.3V78h-.3a60.5 60.5 0 0 1-6.2-4.4l-3-2.3c-1.3-.9-1.7-1.2-1.9-2A303 303 0 0 1 288 50c.2-3.8.3-7.6.1-11.4l1.5.9Zm-58-37.2h-8.5l-.3.4c-.4.3-.4.4-.4 1.6l-.3 2.7a25 25 0 0 0 0 5l.3 6.5.4 8.2v15.3c0 13.6 0 27.2.4 40.7v5h10.3V80l.5-22.9 5.5-.3c3.2-.1 5.2 0 6 .3l.6.6c.1.3.2.6.2 4.6l-.2 9.6v15.9c3.8-.2 7.7-.6 11.5-1.1.2 0 .2 0 .2-5.8a288 288 0 0 0-.6-22.2c.1-3.2.2-3.4 1.8-5.4 2.2-2.4 4.2-5 6.1-7.7l-2.3-.1a157 157 0 0 0-16.8 0c-.2 0-.5-.5-.3-.8l3-3.3 4-4c1.3-1.1 1.5-1.6 1.4-2a98.2 98.2 0 0 0-8.1-10l-1-1.4c-3.6 3-7.1 6.1-10.5 9.3a504.5 504.5 0 0 1-.6-30.7c0-.3-.3-.5-.4-.5-.4-.3-.9-.3-1.8 0Zm4.3 34.5 4.1 5 3 3.9-8.7 7.7-.1-7.2c0-8.2.1-10.7.6-10.7l1.1 1.3Zm92.9-28-5 5.4 2.9 3.8 2.9 3.6.5-.4 10.1-9.8-6.3-7.9-5.1 5.3ZM95 4.7v5.6c0 5 .1 6.4.4 9.6l.2 9.9c0 10.5-.1 16.1-.7 24-.7 8.3-1 13.6-1 22.7v8l4 3 4.3 3 5.4-5.6 6.2-6.6 1-1-.7.2c-.7.3-1 .3-1.7.3-1 0-1.8-.3-3.7-1.7-1-.6-1.9-1.5-2.5-2.5-.2-.6-.2-.7-.3-3.9-.1-5 0-8.2.1-11 .6-7.3.6-7.3.7-15.3 0-11.4 0-22.7.2-34V4.6H95ZM197.6 26c-3.1 2.9-4.8 4.5-6.8 6.6l-7.2 7.7a44.5 44.5 0 0 0-7.4 7.9l.2.8.2.5v1.3c-.3 1.3-.3 2-.3 8.7-.2 6.6.1 13.2.8 19.7V82l1.1.6c1 .5 1.3.7 1.4 1 1.5 1.7 3.3 3 5.4 4l1.7.9c.7.3 1.6.4 2.5 0a567 567 0 0 1 10.9-11l-.8-.3c-1-.3-8.6-4.9-9.3-5.5a2 2 0 0 1-.8-1l-.2-.6V37c.2-.2.8-.1 1.5.2.6.4 5 3.7 7 5.4 1.2 1 1.8 1.7 2.1 2.7.5 1.5.2 2.6-1.3 4l-1 .8.6-.2a7.7 7.7 0 0 0 3.4-2.2c2.5-2.7 4.9-5.6 7.2-8.5l2.7-3.1c1.7-1.7 1.8-2 1.6-2-4.4-3.3-8.9-6.5-13.4-9.6l-2 1.5Zm286-.6-1.6 1.3-5.2 5a178.5 178.5 0 0 0-12 12c-.5 1-.5 2.7 0 14.3.3 4.8.3 4.8-.5 6-.4.7-2.6 3.3-5.5 6.6l-4.7 5.5 1 .1c.8 0 1.3 0 2 .3a77 77 0 0 1 17 10.8l2.4 2.1.4-.2a890 890 0 0 0 19-19c.6-.7.7-1.9.4-4.8V52.3l.5-1.1 1.8-3.5 1.4-2.1h-.7c-3.8-.4-7.6-.7-11.4-.8v-.4a265.9 265.9 0 0 0 9.2-9.6l-1.4.1c-1.4 0-1.9-.2-3.3-1.6-2.2-2.3-4.6-4.6-7-6.7l-1.3-1.2-.6.1Zm-8.1 13.3c.6.3 7.2 6.3 7.2 6.4l-8.3 7.6v-5.6c0-2.8 0-5.6-.2-8.4.3-.5.6-.5 1.3 0Zm3.2 16.4 4.5.5c2 .3 2.1.5 2 1.9L485 76l-3.6-2.5-4.7-3.6a82 82 0 0 0-9.3-6.8c-.4-.6-.3-.8 1.8-2.8 3-3 4.5-4.3 5.5-4.8 1.2-.6 2.2-.7 4.1-.3ZM380 30.8l-5 4.3-.2-.9-.4-1a39 39 0 0 0-6-4.7l-2.4-1.8-4.7 5.1c-5.9 6.4-5.5 6-5.2 6 .4.2 6.9 6.5 7 6.7.1.8.2 11.6.1 17.8l-.1 13.4c0 8.2 0 8.5-1.1 11l-.6 1.3 2.3-.2c2.6-.1 4.3-.2 8.1-.1h3.2c.3-.1.3-.1.3-.8l-.4-1.6c-.5-.8-.5-1.2-.6-2.4-.2-2.4-.2-13.7 0-19.6l.8-24v-.7h.4a87.8 87.8 0 0 1 10.7 8.8c1.4.7.7 1.1 7.2-5.2l5.9-5.6-1-.2c-1-.1-1.3-.3-3-1.5a47.4 47.4 0 0 1-5-4 62.5 62.5 0 0 0-5.3-4.6l-5 4.5ZM146.2 28a90.5 90.5 0 0 0-7.5 7.3 95.5 95.5 0 0 1-14.4 13.3c-.2.5-.2.6.1 4 .4 3.6.5 5.3.6 11l-.3 17.9v2.3l.5.2 1.6 1c.8.6 1.4 1 2 1.2 1.7.6 3.3 1.5 4.7 2.6.5.5 1 .7 1.6.7.7 0 1-.2 2.8-2l8.7-8.2.3.4c.4.6 9.3 9 9.8 9.1h.7c.3-.1.6-.1.8.1l.3.3.8-1c2.4-2.6 7-8 7.5-8.8.7-1.1.8-1.3.6-1.8l-3.3-2.7-3.5-3.5a7.2 7.2 0 0 1-1.7-5c.2-8.4.4-16.8.4-25.2l.5-2.5c.2-1 .2-1.4.1-1.7-.2-1-.1-.8-4.3-4.2-2.7-2-5.3-4-7.8-6.1l-1.6 1.3Zm-6.8 11.8 7.7 6.7.8.8v2.3l-.1 13.6-.1 11.3-.4.6c-.6 1.2-2 2.4-2.6 2.2a79 79 0 0 1-8.1-4.6c-.4-.5-.5-1-.4-2 .2-3.3.4-7.8.5-14.6 0-10 .2-12 .7-15.1l.3-2.4 1.7 1.2Zm187.8 0c-.1 11 0 21.9.2 32.8l.1 7.4-.5.6c-.3.8-.4 1.3 0 2l1.8 1.5 8.9 7.1 9-9.1 1.7-2.7c.2-.2 0-.3-4-3-3.3-2.1-4.4-3-4.7-3.3-.3-.5-.4-2.4-.5-10.2l-.3-12.5c-.4-14.1-.3-16.8.4-20.9v-.4h-12.1v10.7Z" fill="#fff"/>
</svg>