<?xml version="1.0" standalone="no"?>
<!DOCTYPE svg PUBLIC "-//W3C//DTD SVG 20010904//EN"
 "http://www.w3.org/TR/2001/REC-SVG-20010904/DTD/svg10.dtd">
<svg version="1.0" xmlns="http://www.w3.org/2000/svg"
 width="249.000000pt" height="130.000000pt" viewBox="0 0 249.000000 130.000000"
 preserveAspectRatio="xMidYMid meet">

<g transform="translate(0.000000,130.000000) scale(0.100000,-0.100000)"
fill="#000000" stroke="none">
<path d="M1225 1196 c-19 -14 -19 -16 -3 -28 10 -7 23 -31 30 -53 9 -26 20
-41 33 -43 30 -6 45 -22 45 -48 0 -12 14 -49 30 -81 35 -67 35 -67 15 -59 -22
8 -62 -10 -90 -40 l-25 -27 3 97 c2 81 -1 100 -14 109 -9 7 -18 21 -20 32 -3
16 -14 21 -49 23 -27 2 -53 11 -65 22 -13 12 -33 18 -55 18 -19 -1 -42 1 -50
5 -9 4 -24 1 -35 -6 -18 -14 -18 -16 -2 -50 9 -19 17 -40 17 -46 0 -6 11 -17
25 -23 14 -6 25 -19 25 -28 0 -9 5 -21 11 -27 6 -6 16 -20 23 -31 6 -11 20
-31 30 -46 10 -15 19 -43 20 -64 1 -33 -2 -38 -34 -49 -19 -6 -58 -12 -86 -12
-45 -1 -52 2 -62 24 -7 14 -12 45 -12 69 0 26 -10 63 -27 97 -24 45 -37 58
-83 81 -63 32 -89 34 -130 13 -29 -15 -44 -52 -17 -42 22 8 48 -13 42 -33 -6
-18 21 -80 58 -134 16 -23 17 -30 6 -37 -22 -14 -41 -11 -55 9 -10 14 -35 18
-131 24 -65 4 -153 10 -196 14 l-77 6 -35 -35 c-19 -19 -46 -38 -60 -41 -41
-10 -94 -64 -107 -109 -7 -25 -26 -54 -47 -73 -28 -24 -35 -40 -42 -85 -14
-102 -11 -164 11 -192 20 -26 123 -67 167 -67 13 0 35 -7 48 -16 13 -9 29 -13
34 -10 5 4 13 2 16 -4 4 -6 14 -10 24 -8 9 1 30 -7 46 -18 41 -29 90 -44 140
-44 23 0 64 -7 93 -15 28 -9 63 -14 79 -13 15 1 38 -4 50 -10 30 -17 78 -15
114 4 39 19 63 11 109 -37 36 -38 38 -39 109 -39 70 0 72 1 116 41 41 38 46
40 60 25 9 -9 22 -16 28 -16 7 0 29 -9 50 -20 47 -25 59 -25 83 1 10 12 38 30
62 40 33 14 44 25 48 49 4 16 11 30 15 30 5 0 2 11 -7 25 -8 13 -14 32 -11 42
4 14 5 14 6 -4 2 -34 37 -53 72 -41 16 5 31 13 34 17 5 9 -26 8 -42 -2 -21
-13 -39 3 -41 38 -1 18 2 36 8 40 5 3 10 19 10 35 0 15 7 30 15 34 8 3 12 12
9 21 -9 22 32 20 45 -2 6 -10 11 -13 11 -6 0 7 7 10 18 6 9 -3 5 3 -10 15 -31
26 -46 27 -75 7 -20 -14 -21 -13 -16 5 7 25 50 27 91 3 31 -18 53 -16 137 12
16 6 16 3 -5 -14 -14 -11 -33 -21 -43 -21 -10 0 -15 -4 -12 -10 4 -6 -8 -11
-27 -11 -31 -2 -32 -2 -5 -6 32 -5 127 36 167 72 14 12 32 22 41 22 14 0 15
-6 8 -31 -5 -17 -7 -43 -4 -58 5 -19 1 -29 -12 -37 -10 -6 -13 -11 -6 -11 6 0
14 4 18 10 3 5 19 -4 35 -21 15 -17 31 -30 35 -29 4 1 9 -1 12 -3 6 -7 -32 -2
-69 8 -33 9 -174 -12 -213 -32 -16 -9 -45 -27 -64 -41 -18 -14 -48 -28 -65
-33 -29 -7 -30 -7 -5 -8 15 -1 48 14 75 32 27 19 65 39 84 46 54 18 182 26
221 12 22 -8 36 -8 43 -1 5 5 18 10 29 10 10 0 43 24 72 54 45 45 70 60 150
91 55 22 100 45 106 56 5 11 16 19 24 19 19 0 29 41 22 91 -5 41 -3 46 47 87
10 8 17 31 18 62 1 28 2 58 2 68 1 27 -37 26 -64 -3 -13 -14 -29 -25 -36 -25
-16 0 -44 -28 -44 -43 0 -6 7 -2 16 9 12 15 14 15 11 2 -6 -17 3 -17 38 -3 27
11 36 26 29 49 -4 11 -2 16 4 12 6 -3 12 -1 14 6 2 6 9 9 15 5 17 -11 -6 -99
-33 -124 -13 -12 -24 -26 -24 -32 0 -5 -13 -14 -30 -20 -35 -12 -38 -17 -10
-17 11 0 20 4 20 8 0 4 4 8 8 8 5 0 7 -13 4 -30 -2 -16 -9 -27 -14 -24 -6 4
-8 -4 -6 -17 2 -13 9 -23 15 -22 6 1 9 -6 6 -18 -3 -11 -11 -18 -19 -15 -7 3
-14 1 -16 -3 -5 -14 -98 15 -120 37 -38 37 -17 103 31 101 10 0 7 -4 -6 -9
-28 -11 -32 -64 -7 -74 9 -4 19 -4 22 -1 3 3 -1 5 -8 5 -7 0 -10 3 -7 7 4 3 2
12 -4 19 -11 14 23 44 52 44 9 0 24 9 34 20 14 16 20 17 27 8 5 -9 8 -9 8 -2
0 7 -9 22 -20 35 l-19 24 -1 -22 c0 -30 -11 -36 -81 -42 -8 0 -48 -33 -87 -72
l-71 -72 -103 -9 c-82 -8 -119 -17 -178 -43 -102 -46 -122 -50 -158 -31 -17 9
-43 16 -57 16 l-26 0 36 52 c20 31 35 65 35 82 0 16 5 45 12 63 10 28 9 38 -5
62 -17 29 -17 30 3 36 11 3 24 4 29 1 5 -4 33 -8 62 -11 47 -5 56 -2 80 21 18
17 32 23 41 18 7 -4 32 -9 55 -11 38 -2 45 1 58 27 20 40 19 51 -10 83 -27 28
-37 31 -70 18 -16 -7 -28 1 -60 35 -38 40 -44 43 -90 43 -36 -1 -56 -7 -73
-22 -24 -23 -91 -49 -104 -41 -4 3 -8 31 -8 63 0 45 -4 62 -20 76 -11 10 -20
31 -20 46 0 32 -39 59 -87 59 -37 0 -50 10 -58 43 -6 21 -13 27 -34 27 -14 0
-42 3 -61 6 -23 4 -42 0 -55 -10z m74 -5 c12 -8 13 -14 3 -35 -6 -14 -17 -26
-23 -26 -8 0 -7 6 2 17 10 12 10 15 1 9 -7 -4 -23 1 -37 12 -17 14 -21 22 -13
25 21 9 52 7 67 -2z m61 -16 c0 -8 -8 -15 -17 -15 -11 -1 -4 -7 15 -15 17 -8
32 -18 32 -24 0 -5 16 -15 35 -21 48 -16 52 -27 13 -40 l-33 -10 40 5 c28 3
35 2 25 -5 -8 -5 -29 -10 -47 -10 -22 0 -38 -8 -51 -25 -26 -33 -32 -32 -32 9
0 35 -12 51 -44 57 -11 2 -21 10 -24 17 -3 9 4 11 25 6 37 -9 44 -16 53 -56 7
-28 8 -29 9 -8 1 33 -25 70 -49 70 -18 0 -18 2 2 40 22 40 48 54 48 25z m-300
-97 c-15 -5 -20 -17 -20 -43 0 -45 -20 -37 -21 8 0 25 -2 28 -8 13 -7 -18 -9
-16 -24 14 -22 44 -9 52 48 31 37 -13 41 -17 25 -23z m439 18 c19 -20 5 -34
-17 -18 -9 7 -30 19 -47 28 l-30 15 39 -5 c22 -3 46 -12 55 -20z m-412 8 c-3
-3 -12 -4 -19 -1 -8 3 -5 6 6 6 11 1 17 -2 13 -5z m28 -49 c16 -5 17 -5 5 4
-12 8 -8 11 20 11 19 0 42 -5 50 -10 11 -7 11 -10 2 -10 -7 0 -11 -4 -8 -9 3
-5 -1 -12 -10 -15 -9 -3 -12 -2 -8 5 3 6 -12 -1 -35 -15 -62 -39 -81 -32 -81
31 0 26 11 28 65 8z m416 -36 c18 -18 21 -29 16 -70 -4 -32 0 -71 13 -116 10
-37 17 -70 14 -72 -2 -2 14 -24 36 -47 43 -46 47 -62 28 -97 -7 -12 -12 -33
-13 -47 0 -19 -5 -24 -19 -22 -10 2 -16 0 -13 -5 8 -13 -136 -3 -153 11 -13
10 -13 9 -1 -6 10 -13 29 -18 75 -19 51 -1 56 -3 31 -10 -23 -6 -19 -7 18 -3
53 6 58 -2 23 -35 -26 -24 -90 -111 -82 -111 3 0 -2 -16 -10 -35 -7 -19 -13
-54 -13 -77 l1 -43 8 46 c4 26 15 59 24 75 19 36 19 31 1 -30 -8 -27 -15 -66
-15 -86 0 -37 -11 -51 -57 -78 -26 -14 -36 -15 -29 -4 3 5 -1 9 -8 9 -8 0 -13
-7 -11 -16 3 -22 49 -25 79 -5 15 9 26 12 26 6 0 -19 -36 -32 -85 -32 -38 0
-52 5 -76 30 -24 23 -29 25 -24 10 9 -30 -4 -24 -16 7 -13 35 2 78 42 119 37
39 61 123 62 219 0 49 3 63 8 45 5 -15 6 -4 3 28 -5 41 -3 52 8 50 7 -2 12 5
11 16 -1 13 2 15 10 7 8 -8 8 -14 -1 -23 -18 -18 -15 -26 18 -43 43 -22 113
-19 141 5 l24 21 -34 -17 c-38 -18 -111 -15 -136 6 -28 23 -4 29 35 9 42 -22
71 -21 105 6 19 14 19 15 -8 5 -43 -15 -117 12 -140 51 -19 33 -21 59 -10 110
l8 34 6 -45 c4 -29 5 -17 3 32 -2 42 -10 93 -18 112 -8 20 -12 36 -8 36 3 0
-4 7 -16 16 -17 12 -22 24 -20 47 3 28 8 33 38 38 63 11 80 9 101 -12z m-756
1 c3 -5 -1 -20 -10 -33 -8 -13 -13 -26 -10 -29 3 -3 0 -17 -6 -32 -15 -33 -30
-15 -22 26 5 25 2 30 -27 39 -27 10 -30 13 -16 21 9 5 26 6 39 3 17 -5 19 -4
7 4 -12 9 -10 11 12 11 15 0 30 -4 33 -10z m472 -20 c8 -16 10 -51 6 -105 -5
-78 -4 -83 31 -152 34 -69 52 -128 20 -70 -20 37 -28 35 -9 -3 9 -17 20 -28
25 -25 13 8 12 5 -1 -33 -8 -22 -17 -32 -32 -32 -12 0 -43 -3 -69 -6 -39 -5
-49 -3 -54 11 -6 13 -9 14 -16 3 -8 -10 -9 -9 -5 4 3 9 1 18 -4 20 -7 2 -7 18
0 48 6 25 11 61 11 81 0 48 -38 171 -51 164 -16 -10 -22 24 -10 54 9 20 24 32
53 40 37 11 43 11 61 -7 13 -13 22 -40 25 -74 l6 -53 7 50 c6 48 -5 95 -23 95
-4 0 -8 5 -8 11 0 18 24 4 37 -21z m-435 -13 c-12 -7 -20 -16 -17 -19 4 -3 2
-9 -3 -12 -6 -3 -9 0 -8 6 3 23 17 38 34 38 13 -1 12 -4 -6 -13z m69 -38 c6
-12 11 -56 12 -98 0 -67 1 -70 6 -26 l6 50 6 -48 c5 -36 20 -68 58 -124 60
-87 62 -109 11 -105 -19 1 -44 -2 -55 -8 -12 -6 -43 -10 -71 -8 -42 3 -49 6
-52 26 -2 12 -7 20 -12 17 -5 -3 -12 5 -16 17 -3 13 -15 35 -25 50 -25 35 -24
47 1 17 22 -27 23 -26 11 18 -8 27 -6 32 12 37 12 3 23 3 26 0 3 -3 5 -33 5
-67 -1 -59 -1 -60 8 -22 12 54 2 101 -34 158 -26 40 -29 53 -22 78 5 17 14 31
19 31 6 0 19 7 30 14 29 21 63 17 76 -7z m183 5 c3 -8 2 -12 -4 -9 -6 3 -10
10 -10 16 0 14 7 11 14 -7z m362 -70 c13 -31 14 -47 4 -107 l-12 -70 -21 48
c-16 38 -18 51 -9 66 15 24 16 50 1 29 -8 -12 -10 -11 -7 5 5 31 22 24 35 -15
10 -31 12 -32 12 -9 1 14 -12 46 -29 72 -16 26 -30 53 -30 59 0 17 39 -37 56
-78z m294 54 c0 -2 -7 -24 -14 -49 -17 -54 -11 -123 12 -141 13 -11 14 -10 4
9 -24 45 -9 167 20 159 7 -1 10 -1 6 1 -16 9 -7 23 15 23 24 0 86 -55 74 -66
-3 -3 -11 3 -18 14 -10 16 -18 18 -42 11 -38 -11 -47 -24 -47 -71 0 -47 14
-57 17 -12 1 32 21 64 39 64 5 0 27 -7 50 -16 41 -15 42 -17 32 -45 -6 -18
-17 -29 -28 -29 -11 0 -21 -4 -24 -9 -3 -4 7 -6 22 -5 15 2 20 1 12 -2 -8 -4
-24 -15 -36 -26 -33 -29 -151 -17 -199 21 -20 16 -20 16 -1 -6 16 -20 17 -23
3 -23 -9 0 -19 4 -22 10 -9 14 -18 126 -9 118 4 -5 14 -2 22 5 13 10 14 9 7
-3 -5 -8 13 4 41 27 42 36 64 50 64 41z m-353 -127 c-2 -39 1 -68 10 -83 11
-18 13 -18 8 -3 -15 46 -14 48 5 10 11 -22 20 -52 20 -67 0 -25 -4 -28 -34
-28 -31 0 -35 4 -56 55 -12 30 -21 57 -20 61 1 4 -5 11 -14 16 -9 5 -16 16
-16 24 0 23 55 74 79 74 20 0 21 -5 18 -59z m567 35 c7 3 21 -4 31 -16 16 -17
16 -24 6 -48 l-13 -27 -19 24 c-19 23 -19 23 -19 1 0 -16 -5 -21 -22 -18 -20
3 -23 8 -20 38 4 41 21 65 35 51 5 -5 15 -7 21 -5z m-1604 -39 c-42 -14 -50
-50 -12 -55 21 -3 22 -1 13 16 -9 17 -7 20 16 25 29 5 68 3 124 -7 31 -6 30
-5 -11 13 -25 11 -39 20 -32 20 7 1 23 -4 35 -11 12 -7 65 -13 117 -15 131 -3
129 -3 136 -15 4 -7 2 -8 -4 -4 -7 4 -12 3 -12 -3 0 -5 5 -13 10 -16 20 -13 9
-25 -17 -20 -26 5 -26 5 -8 -7 38 -26 75 -67 75 -85 0 -25 -46 -29 -59 -5 -8
14 -27 18 -103 20 -81 3 -96 7 -118 27 -30 29 -59 40 -125 50 -27 4 -58 13
-68 20 -19 13 -19 14 6 39 15 14 36 26 49 25 18 0 15 -3 -12 -12z m2075 -56
c-3 -6 -18 -11 -33 -11 l-27 1 30 13 c32 14 41 13 30 -3z m-2102 -16 c20 -8
48 -15 61 -15 69 0 145 -60 118 -93 -6 -7 -9 -23 -5 -35 4 -15 1 -22 -9 -22
-9 0 -27 -9 -40 -20 -16 -12 -51 -22 -97 -28 -69 -8 -71 -8 -65 12 4 17 3 18
-5 6 -7 -10 -11 -11 -11 -3 0 18 -34 33 -80 37 -23 2 -44 7 -48 11 -4 4 2 5
13 1 11 -3 27 -1 35 4 13 9 13 10 0 11 -8 1 -23 1 -32 0 -13 -2 -18 5 -18 21
0 18 2 20 10 8 8 -12 10 -12 16 3 3 9 14 17 23 17 14 0 14 2 1 10 -13 8 -12
10 3 10 10 0 16 4 12 9 -7 12 31 25 46 15 8 -5 9 -3 4 6 -5 9 -2 10 11 6 11
-3 25 -2 33 3 11 7 9 10 -8 16 -31 10 -64 -1 -103 -32 -29 -24 -30 -24 -13 -4
25 30 75 61 96 61 9 0 33 -7 52 -15z m821 -67 c-18 -134 -35 -159 -80 -117
-18 17 -21 28 -17 55 4 26 1 40 -14 57 -11 12 -25 31 -31 43 -10 19 -9 21 11
17 12 -2 45 3 72 10 28 8 55 15 60 16 8 1 7 -25 -1 -81z m1316 3 c0 -5 -7 -12
-16 -15 -14 -5 -15 -4 -4 9 14 17 20 19 20 6z m-1783 -27 c13 -4 21 -10 18
-14 -3 -4 2 -10 10 -13 8 -4 26 -25 40 -48 15 -23 36 -44 47 -47 15 -3 18 -10
13 -26 -3 -11 -7 -30 -9 -42 -4 -29 -16 -45 -27 -38 -5 3 -7 10 -3 15 3 6 -10
7 -35 3 -37 -6 -41 -4 -51 20 -6 17 -22 31 -42 38 -28 10 -30 12 -12 20 18 7
18 8 -2 5 -11 -1 -38 13 -60 31 -21 18 -45 37 -51 42 -10 8 -10 16 -1 35 10
23 17 25 77 25 36 0 76 -3 88 -6z m743 -29 c-8 -10 -12 -44 -11 -94 l1 -78
-31 -7 c-58 -11 -62 -9 -40 23 22 30 27 67 12 89 -4 8 -1 27 8 47 13 27 22 34
45 35 24 0 27 -2 16 -15z m-607 -29 c14 -20 14 -26 2 -42 -13 -18 -15 -18 -37
5 -13 13 -17 21 -10 17 10 -6 11 -1 6 18 -8 34 18 35 39 2z m192 -8 c32 -14
32 -39 1 -101 -27 -51 -25 -78 10 -137 14 -22 23 -28 37 -24 13 4 18 2 15 -7
-2 -7 -19 -14 -36 -15 -18 -1 -38 -7 -46 -13 -11 -9 -17 -8 -29 4 -21 20 -27
19 -27 -6 0 -11 -4 -18 -10 -14 -6 4 -5 15 2 30 6 13 15 22 21 18 6 -3 7 -1 3
6 -10 15 3 53 15 46 5 -4 9 -3 10 2 0 4 3 19 5 33 4 22 3 23 -10 10 -22 -23
-77 -171 -73 -194 3 -16 5 -14 6 7 0 15 6 27 12 27 19 0 2 -70 -22 -96 -31
-33 -107 -31 -112 2 -2 14 -54 54 -61 47 -3 -3 -6 6 -6 20 0 28 36 113 51 123
5 3 9 11 9 17 -1 7 -11 1 -23 -13 -12 -14 -39 -34 -59 -45 -29 -15 -39 -16
-51 -6 -18 14 -33 89 -21 101 5 5 35 11 68 14 63 5 98 -8 88 -32 -3 -9 -1 -13
4 -10 5 4 9 -12 8 -34 -1 -37 1 -39 13 -22 8 11 12 27 9 37 -2 9 0 17 5 17 5
0 9 35 9 78 0 100 16 127 69 119 23 -3 44 1 56 9 23 17 27 17 60 2z m-431 -56
c11 -13 34 -31 52 -38 18 -8 38 -23 43 -33 10 -18 8 -19 -28 -14 -34 5 -41 2
-56 -21 -17 -26 -17 -28 2 -54 11 -15 24 -39 28 -52 6 -22 3 -21 -26 12 -30
31 -95 65 -106 54 -2 -2 18 -22 45 -44 54 -46 138 -80 155 -63 7 7 2 8 -14 5
-21 -4 -22 -3 -4 5 27 12 38 3 31 -24 -3 -12 -1 -37 5 -54 19 -55 130 -102
181 -76 7 3 2 -3 -11 -14 -33 -29 -87 -27 -134 4 -20 14 -37 21 -37 14 0 -7
-12 -9 -37 -5 -21 3 -75 10 -121 14 -45 5 -85 12 -90 17 -4 4 13 5 38 2 37 -5
40 -4 20 4 -14 6 -37 9 -52 6 -16 -2 -24 1 -21 7 4 5 0 7 -8 4 -9 -3 -26 2
-40 12 -36 28 -33 99 6 140 22 23 32 27 42 19 7 -6 13 -8 13 -4 0 4 6 2 14 -4
8 -7 17 -8 20 -3 3 6 0 14 -7 19 -27 21 -47 21 -74 0 l-28 -22 16 25 c15 23
23 25 79 23 60 -1 61 -1 41 16 -22 19 -51 80 -51 106 0 8 7 15 15 15 8 0 15 7
15 15 0 35 -35 7 -43 -35 -3 -17 -5 -14 -4 10 2 31 6 36 37 46 40 13 63 5 94
-34z m656 34 c14 1 41 4 60 8 24 4 29 4 15 -3 -19 -8 -19 -9 4 -12 14 -2 26
-9 28 -16 2 -6 -21 -39 -52 -73 -67 -76 -91 -142 -80 -228 12 -99 20 -93 23
15 2 83 6 113 21 136 28 44 32 20 9 -48 -16 -48 -19 -74 -14 -130 8 -96 8 -97
-102 -104 -7 -1 -10 -6 -6 -12 4 -7 21 -9 43 -6 l36 6 -33 -29 c-29 -27 -39
-30 -95 -29 -47 1 -55 3 -32 8 l30 7 -37 5 c-22 3 -34 1 -31 -5 3 -5 1 -6 -5
-2 -7 4 -12 13 -12 21 0 8 -5 17 -12 21 -7 5 -9 2 -4 -7 4 -8 1 -6 -7 3 -7 10
-26 22 -40 27 -15 6 -27 18 -27 27 0 26 29 79 62 112 34 36 52 34 38 -4 -14
-37 -12 -101 5 -133 15 -31 48 -47 110 -56 36 -5 35 -3 -18 16 -64 23 -85 47
-94 105 -6 38 -6 39 14 21 40 -35 73 -11 73 53 0 17 5 41 11 52 9 16 8 19 -2
13 -9 -6 -10 -3 -4 11 13 31 35 117 35 136 0 21 44 41 70 33 10 -3 17 0 17 8
0 9 -9 12 -24 9 -26 -5 -63 22 -63 45 0 11 7 13 33 7 17 -5 43 -8 57 -8z
m-1033 -8 c10 15 14 16 39 2 21 -11 30 -24 32 -48 3 -32 4 -32 20 -13 11 13
36 21 75 25 55 6 58 5 67 -20 16 -42 9 -85 -16 -95 -12 -4 -27 -16 -33 -26 -6
-10 -10 -13 -11 -8 0 18 15 34 40 44 18 7 20 10 8 10 -34 2 -58 -35 -58 -89 0
-27 -4 -50 -9 -50 -18 0 -41 12 -41 22 0 5 5 6 12 2 7 -4 8 -3 4 5 -4 6 -11 9
-16 6 -18 -11 -42 55 -36 98 4 30 3 36 -3 22 -15 -33 -12 -76 8 -109 18 -30
35 -116 23 -116 -3 0 -28 17 -56 38 -58 44 -96 66 -102 59 -3 -2 9 -10 25 -17
16 -6 38 -21 48 -32 18 -20 18 -21 -7 -13 -101 31 -132 48 -146 81 -15 36 -19
84 -6 84 4 0 7 17 5 38 -2 26 -1 31 5 18 8 -18 9 -18 15 -2 4 10 4 23 0 29 -3
7 4 3 18 -8 13 -11 19 -13 13 -5 -6 8 -11 27 -12 42 -1 20 4 28 21 31 12 2 31
-2 43 -9 17 -10 22 -9 31 4z m2095 -59 c75 -20 72 -19 59 -32 -9 -9 -16 -9
-31 1 -12 7 -21 8 -25 2 -3 -6 -16 -10 -28 -11 -21 -1 -21 -1 2 -8 21 -6 17
-10 -39 -34 -58 -25 -61 -25 -44 -6 13 15 5 12 -27 -10 -51 -34 -75 -58 -66
-68 11 -11 -12 -41 -37 -47 -28 -7 -90 25 -106 54 -25 47 8 150 47 150 16 -1
16 -2 3 -13 -52 -40 -64 -102 -28 -133 14 -12 18 -13 10 -3 -6 9 -8 20 -4 24
4 5 1 4 -7 0 -11 -6 -13 -4 -8 9 4 10 7 27 7 37 0 11 5 17 10 14 6 -3 10 0 10
8 0 23 33 46 79 53 23 4 57 18 73 33 28 23 30 23 19 4 -14 -28 -24 -34 -86
-55 l-50 -17 55 3 c30 2 56 8 58 15 2 6 8 9 12 6 11 -7 40 35 40 58 0 10 5 15
10 12 6 -3 10 2 10 12 0 13 6 9 20 -14 14 -23 31 -35 62 -44z m-1172 -74 c-17
-78 -26 -86 -55 -50 -43 51 -45 54 -45 65 0 5 -4 10 -9 10 -4 0 1 25 13 55
l21 54 43 -42 43 -43 -11 -49z m10 94 c0 -18 -2 -19 -15 -9 -15 12 -12 30 6
30 5 0 9 -10 9 -21z m220 -8 c0 -4 -13 -25 -30 -46 -30 -37 -40 -62 -20 -50 6
4 7 -1 3 -11 -5 -15 -7 -15 -16 1 -7 13 -4 24 12 44 12 14 26 36 33 49 12 23
18 28 18 13z m-893 -63 c-3 -7 -5 -2 -5 12 0 14 2 19 5 13 2 -7 2 -19 0 -25z
m1413 -3 c-7 -9 -15 -13 -19 -10 -3 3 1 10 9 15 21 14 24 12 10 -5z m-1242
-17 c-16 -5 -28 -14 -28 -19 0 -5 -5 -9 -10 -9 -6 0 -5 8 2 20 8 12 23 20 38
19 l25 -1 -27 -10z m423 -72 c17 -11 19 -16 8 -16 -22 0 -46 29 -54 65 l-6 30
14 -31 c8 -17 25 -39 38 -48z m324 51 c-5 -19 -4 -19 9 3 11 18 15 20 16 9 0
-9 -9 -27 -21 -40 -11 -13 -17 -17 -13 -9 7 13 5 13 -9 1 -9 -7 -15 -17 -12
-21 9 -15 -23 -31 -49 -24 -27 7 -32 19 -16 44 6 10 10 11 10 3 0 -27 18 -11
24 20 5 29 10 34 37 35 26 1 29 -2 24 -21z m785 -22 c0 -2 -10 -9 -22 -15 -22
-11 -22 -10 -4 4 21 17 26 19 26 11z m-1616 -25 c14 -5 30 -19 36 -30 10 -19
10 -20 -7 -11 -27 15 -69 51 -61 51 4 0 18 -4 32 -10z m1016 -60 c-17 -32 -21
-19 -8 26 9 31 13 34 16 17 2 -12 -2 -32 -8 -43z m-186 25 c-3 -28 -64 -105
-64 -81 0 25 12 46 23 39 6 -4 7 -1 2 6 -5 10 28 61 40 61 1 0 1 -11 -1 -25z
m-284 -58 c-9 -60 -15 -66 -42 -39 l-22 21 34 35 c19 19 35 34 36 33 1 -1 -1
-23 -6 -50z m213 1 c-27 -79 7 -153 77 -164 29 -5 38 -11 37 -24 -1 -15 -6
-16 -27 -9 -24 9 -24 8 -6 -6 25 -19 8 -20 -19 -1 -11 7 -34 17 -52 20 -43 10
-50 22 -55 88 -3 61 6 69 16 13 4 -19 11 -37 15 -40 5 -3 3 15 -4 40 -12 38
-12 49 2 85 21 53 35 52 16 -2z m-86 -5 c-3 -10 -5 -4 -5 12 0 17 2 24 5 18 2
-7 2 -21 0 -30z m-867 -23 c0 -37 -11 -38 -27 -3 -20 41 -17 56 7 43 13 -7 20
-21 20 -40z m422 -70 c6 0 8 -3 5 -6 -8 -8 -57 23 -57 36 0 6 9 1 20 -10 11
-11 25 -20 32 -20z"/>
<path d="M1477 1020 c25 -10 43 -63 43 -125 0 -22 4 -45 8 -52 10 -17 2 149
-9 170 -6 10 -21 17 -37 16 -26 0 -26 -1 -5 -9z"/>
<path d="M1505 820 c14 -30 25 -69 25 -86 0 -53 12 -94 30 -104 14 -8 16 -5
12 16 -3 18 -7 22 -12 13 -5 -7 -11 12 -15 47 -8 71 -22 114 -47 145 -14 18
-12 10 7 -31z"/>
<path d="M1600 685 c13 -14 26 -25 28 -25 3 0 -5 11 -18 25 -13 14 -26 25 -28
25 -3 0 5 -11 18 -25z"/>
<path d="M1441 442 c0 -18 -10 -51 -22 -73 -11 -23 -19 -43 -16 -45 10 -10 48
95 44 122 -4 29 -4 29 -6 -4z"/>
<path d="M1367 179 c7 -7 15 -10 18 -7 3 3 -2 9 -12 12 -14 6 -15 5 -6 -5z"/>
<path d="M1130 921 c0 -5 12 -30 26 -55 19 -33 27 -64 29 -107 1 -33 5 -63 9
-66 12 -13 6 110 -8 140 -8 18 -20 47 -27 65 -13 30 -29 43 -29 23z"/>
<path d="M1150 643 c0 -32 29 -63 58 -63 l27 0 -32 21 c-18 12 -33 27 -33 34
0 8 -4 17 -10 20 -5 3 -10 -2 -10 -12z"/>
<path d="M828 897 c7 -9 17 -28 22 -44 l8 -28 1 32 c1 24 -5 35 -21 44 -21 11
-22 11 -10 -4z"/>
<path d="M780 866 c0 -3 12 -25 27 -47 15 -23 30 -60 34 -82 6 -39 7 -40 8 -9
0 18 -6 47 -15 65 -18 35 -54 84 -54 73z"/>
<path d="M901 760 c0 -8 4 -22 9 -30 12 -18 12 -2 0 25 -6 13 -9 15 -9 5z"/>
<path d="M812 615 c4 -27 67 -33 102 -10 21 14 31 15 58 6 25 -9 30 -9 21 0
-12 12 -21 12 -118 5 -30 -2 -53 1 -58 8 -5 7 -7 3 -5 -9z"/>
<path d="M1391 804 c0 -11 3 -14 6 -6 3 7 2 16 -1 19 -3 4 -6 -2 -5 -13z"/>
<path d="M1676 878 c-3 -13 -5 -41 -5 -63 1 -34 3 -32 10 19 9 61 6 85 -5 44z"/>
<path d="M1313 834 c-18 -14 -33 -33 -33 -41 0 -16 18 -1 59 50 19 24 11 21
-26 -9z"/>
<path d="M1340 679 c0 -10 34 -29 51 -29 8 0 6 6 -4 18 -17 19 -47 25 -47 11z"/>
<path d="M595 730 c10 -11 20 -20 23 -20 3 0 -3 9 -13 20 -10 11 -20 20 -23
20 -3 0 3 -9 13 -20z"/>
<path d="M491 694 c26 -28 52 -32 47 -7 -2 10 -17 20 -36 24 l-33 7 22 -24z"/>
<path d="M638 703 c6 -2 18 -2 25 0 6 3 1 5 -13 5 -14 0 -19 -2 -12 -5z"/>
<path d="M421 687 c2 -1 13 -9 24 -17 19 -14 19 -14 6 3 -7 9 -18 17 -24 17
-6 0 -8 -1 -6 -3z"/>
<path d="M250 626 c14 -8 41 -15 60 -14 l35 1 -40 7 c-22 4 -49 10 -60 14 -13
5 -11 2 5 -8z"/>
<path d="M198 583 c6 -2 18 -2 25 0 6 3 1 5 -13 5 -14 0 -19 -2 -12 -5z"/>
<path d="M1080 710 c-9 -6 -10 -10 -3 -10 6 0 15 5 18 10 8 12 4 12 -15 0z"/>
<path d="M1088 608 c-2 -12 -9 -22 -16 -20 -8 1 -11 -2 -6 -9 5 -9 2 -10 -10
-6 -10 4 -15 3 -11 -3 14 -22 43 -10 50 21 4 17 5 33 2 36 -3 2 -7 -6 -9 -19z"/>
<path d="M515 626 c-21 -15 -14 -46 10 -46 13 0 14 4 5 20 -8 15 -8 20 2 21
89 8 117 19 47 19 -25 0 -54 -6 -64 -14z"/>
<path d="M658 538 c5 -5 16 -8 23 -6 8 3 3 7 -10 11 -17 4 -21 3 -13 -5z"/>
<path d="M717 499 c7 -7 15 -10 18 -7 3 3 -2 9 -12 12 -14 6 -15 5 -6 -5z"/>
<path d="M970 566 c0 -2 7 -7 16 -10 8 -3 12 -2 9 4 -6 10 -25 14 -25 6z"/>
<path d="M929 463 c-10 -2 -22 -23 -29 -50 -6 -26 -20 -60 -32 -75 -11 -16
-18 -31 -15 -34 7 -7 54 74 62 109 4 15 19 34 34 42 25 14 15 18 -20 8z"/>
<path d="M715 390 c-3 -6 1 -7 9 -4 18 7 21 14 7 14 -6 0 -13 -4 -16 -10z"/>
<path d="M606 345 c11 -27 37 -34 69 -19 l30 14 -38 -5 c-28 -5 -39 -2 -43 10
-3 8 -10 15 -15 15 -4 0 -6 -7 -3 -15z"/>
<path d="M967 329 c7 -7 15 -10 18 -7 3 3 -2 9 -12 12 -14 6 -15 5 -6 -5z"/>
<path d="M843 250 c0 -25 2 -35 4 -22 2 12 2 32 0 45 -2 12 -4 2 -4 -23z"/>
<path d="M710 271 c0 -5 7 -12 16 -15 14 -5 15 -4 4 9 -14 17 -20 19 -20 6z"/>
<path d="M810 168 c0 -4 -7 -4 -17 -1 -11 4 -14 3 -9 -5 12 -20 86 -12 86 9 0
5 -13 8 -30 7 -16 -1 -30 -6 -30 -10z"/>
<path d="M498 543 c8 -3 22 -19 33 -37 10 -17 19 -26 19 -20 0 17 -40 64 -53
63 -8 0 -7 -3 1 -6z"/>
<path d="M568 473 c7 -3 16 -2 19 1 4 3 -2 6 -13 5 -11 0 -14 -3 -6 -6z"/>
<path d="M460 242 c0 -5 19 -12 43 -18 23 -5 42 -13 42 -19 1 -14 24 -52 25
-39 0 5 -5 15 -12 22 -9 9 -9 12 -1 12 7 0 15 -5 18 -10 4 -6 25 -19 48 -31
23 -11 34 -14 25 -6 -10 8 -14 18 -10 22 4 5 2 5 -4 2 -6 -3 -26 7 -45 22 -41
34 -129 63 -129 43z"/>
<path d="M375 200 c10 -11 20 -20 23 -20 3 0 -3 9 -13 20 -10 11 -20 20 -23
20 -3 0 3 -9 13 -20z"/>
<path d="M1146 462 c-3 -5 -1 -38 4 -73 l8 -64 -1 72 c-2 76 -2 78 -11 65z"/>
<path d="M1109 283 c-13 -16 -12 -17 4 -4 16 13 21 21 13 21 -2 0 -10 -8 -17
-17z"/>
<path d="M970 255 c-6 -8 -10 -19 -8 -24 1 -6 8 1 15 14 13 28 11 31 -7 10z"/>
<path d="M1085 189 c-4 -6 -5 -12 -2 -15 2 -3 7 2 10 11 7 17 1 20 -8 4z"/>
<path d="M961 154 c0 -11 3 -14 6 -6 3 7 2 16 -1 19 -3 4 -6 -2 -5 -13z"/>
<path d="M902 139 c2 -7 10 -15 17 -17 8 -3 12 1 9 9 -2 7 -10 15 -17 17 -8 3
-12 -1 -9 -9z"/>
<path d="M1033 113 c18 -20 63 -40 51 -22 -3 5 -10 9 -16 9 -6 0 -21 8 -32 18
-21 17 -21 17 -3 -5z"/>
<path d="M218 523 c-4 -8 -3 -28 2 -38 4 -8 7 -24 9 -42 1 -15 3 -16 10 -3 6
8 7 28 4 45 -6 33 -18 52 -25 38z"/>
<path d="M280 485 c-6 -8 -13 -38 -15 -67 -2 -44 -1 -48 6 -23 5 17 10 40 11
53 2 14 7 21 16 17 8 -3 10 0 6 7 -5 7 0 9 14 6 14 -4 20 -2 15 5 -4 6 0 8 10
4 10 -3 17 -2 17 3 0 16 -66 12 -80 -5z"/>
<path d="M180 387 c20 -11 24 -20 22 -45 -1 -23 2 -32 13 -32 12 0 14 7 9 28
-11 45 -24 62 -47 62 -21 0 -21 -1 3 -13z"/>
<path d="M50 331 c0 -5 14 -20 31 -32 29 -20 30 -20 18 -2 -14 24 -49 47 -49
34z"/>
<path d="M260 251 c0 -11 4 -22 9 -25 4 -3 6 6 3 19 -5 30 -12 33 -12 6z"/>
<path d="M2247 469 c7 -7 15 -10 18 -7 3 3 -2 9 -12 12 -14 6 -15 5 -6 -5z"/>
<path d="M2000 351 c0 -6 4 -13 10 -16 6 -3 7 1 4 9 -7 18 -14 21 -14 7z"/>
<path d="M2055 311 c-6 -5 -19 -11 -30 -14 -19 -4 -19 -5 1 -6 12 0 27 6 34
14 14 16 10 20 -5 6z"/>
<path d="M1018 495 c-3 -13 -1 -22 3 -19 5 3 9 12 9 21 0 14 3 13 23 -3 l22
-19 -19 23 c-24 28 -33 28 -38 -3z"/>
<path d="M2304 518 c-7 -11 11 -18 39 -16 15 1 23 7 20 15 -5 13 -51 14 -59 1z"/>
<path d="M1886 425 c-3 -9 -6 -29 -5 -43 1 -22 3 -19 10 12 10 40 6 60 -5 31z"/>
<path d="M1808 313 c6 -2 18 -2 25 0 6 3 1 5 -13 5 -14 0 -19 -2 -12 -5z"/>
<path d="M1571 283 c-1 -29 2 -33 25 -33 24 0 94 35 94 47 0 2 -15 -5 -34 -16
-48 -30 -74 -28 -79 7 -4 25 -4 25 -6 -5z"/>
<path d="M1785 293 c-53 -12 -127 -35 -123 -38 2 -2 26 2 53 11 28 8 82 19
120 23 62 7 64 8 20 9 -27 0 -59 -2 -70 -5z"/>
</g>
</svg>
