<?xml version="1.0" standalone="no"?>
<!DOCTYPE svg PUBLIC "-//W3C//DTD SVG 20010904//EN"
 "http://www.w3.org/TR/2001/REC-SVG-20010904/DTD/svg10.dtd">
<svg version="1.0" xmlns="http://www.w3.org/2000/svg"
 width="1280.000000pt" height="703.000000pt" viewBox="0 0 1280.000000 703.000000"
 preserveAspectRatio="xMidYMid meet">
<metadata>
Created by potrace 1.15, written by Peter Selinger 2001-2017
</metadata>
<g transform="translate(0.000000,703.000000) scale(0.100000,-0.100000)"
fill="#ffffff" stroke="none">
<path d="M713 6797 c-259 -128 -471 -234 -470 -237 1 -3 -7 -17 -17 -33 -29
-43 -132 -304 -165 -418 -76 -261 -79 -425 -12 -531 24 -38 44 -52 122 -91
189 -93 427 -149 949 -222 880 -123 1112 -178 1577 -376 225 -96 642 -300 843
-413 l115 -65 -30 -12 c-18 -8 -77 -13 -150 -13 l-120 -1 -69 39 c-37 21 -143
67 -235 102 -91 36 -204 87 -251 115 -137 81 -354 183 -515 242 -250 91 -239
89 -655 92 -336 2 -368 1 -402 -16 -133 -67 -118 -260 27 -331 53 -27 101 -29
232 -12 168 22 407 16 473 -11 25 -10 94 -49 153 -86 59 -37 244 -135 410
-217 166 -83 342 -176 392 -207 130 -82 231 -131 321 -154 219 -55 403 -54
604 3 69 20 175 48 235 61 61 14 122 31 137 36 25 10 39 3 185 -97 87 -59 282
-195 433 -302 981 -695 1106 -779 1579 -1060 11 -6 -51 -44 -215 -135 -2052
-1132 -2289 -1265 -2292 -1286 -2 -11 -9 -21 -15 -21 -7 0 -122 -71 -255 -158
l-243 -158 -84 -132 -85 -132 -36 -163 c-19 -89 -36 -167 -37 -174 -1 -6 51
-59 116 -118 102 -93 120 -105 133 -94 9 7 28 13 43 14 15 0 82 32 149 70
l122 70 0 145 0 146 73 71 72 71 145 41 146 41 339 0 c206 0 411 -6 520 -15
110 -9 316 -15 530 -15 193 0 513 -5 712 -11 330 -10 397 -9 755 11 332 18
434 27 658 61 146 21 285 44 310 50 202 50 1353 415 1420 450 19 11 127 51
240 90 327 114 468 179 717 331 276 168 504 348 739 582 209 209 307 338 408
536 131 257 212 486 316 895 45 174 51 211 70 445 20 237 26 273 81 506 54
229 65 264 132 415 l74 164 81 63 80 62 142 -21 c79 -11 146 -17 151 -12 4 4
46 57 93 116 l85 109 -86 129 c-100 149 -66 136 -298 118 -135 -10 -144 -12
-243 -57 -94 -42 -105 -44 -113 -29 -6 9 -14 17 -19 17 -5 0 -824 -450 -1819
-999 l-1810 -1000 -763 355 c-420 195 -1064 495 -1433 666 -368 171 -674 315
-678 319 -5 4 16 26 47 49 31 24 55 46 54 50 -5 13 -479 445 -491 448 -7 1
-101 -38 -210 -88 l-198 -90 -277 129 c-152 71 -898 418 -1657 771 -1417 660
-1612 751 -1617 749 -2 0 -215 -105 -475 -232z m10959 -1554 c-57 -65 -66 -83
-185 -370 l-125 -302 -36 -198 c-103 -558 -264 -1175 -354 -1350 -51 -100
-149 -236 -235 -326 l-72 -76 -135 63 c-74 35 -529 246 -1010 470 -481 224
-881 411 -888 415 -9 5 293 179 834 482 466 261 1165 652 1553 870 388 217
708 394 710 392 2 -1 -24 -33 -57 -70z m-4834 -2892 c379 -199 1225 -614 1450
-711 29 -13 49 -26 45 -31 -4 -4 -163 -55 -353 -112 l-345 -106 -265 -20
c-199 -16 -353 -21 -620 -21 -276 -1 -456 -7 -808 -29 l-452 -29 -248 19
c-210 16 -277 17 -451 8 -112 -5 -205 -8 -207 -6 -4 4 2025 1144 2039 1146 5
1 102 -48 215 -108z"/>
</g>
</svg>
