<?xml version="1.0" encoding="utf-8"?>
<!DOCTYPE svg PUBLIC "-//W3C//DTD SVG 20010904//EN" "http://www.w3.org/TR/2001/REC-SVG-20010904/DTD/svg10.dtd">
<svg version="1.0" width="960pt" height="960pt" viewBox="0 0 960 960" preserveAspectRatio="xMidYMid meet" xmlns="http://www.w3.org/2000/svg">
  <g transform="translate(0,960)scale(.075,.075)" fill="#FFF">
    <path id="path1" d="M 2535 -12784 c -69 15 -205 63 -298 104 l -47 21 0 58 c 0 149 64 385 148 545 75 142 233 308 400 419 127 85 513 260 531 241 5 -5 33 -171 63 -369 l 55 -360 -32 -40 c -77 -95 -97 -181 -93 -389 l 3 -129 -81 -28 c -186 -65 -260 -80 -424 -84 -118 -4 -172 -1 -225 11 z M 3604 -12295 c -27 13 -74 50 -105 82 l -57 58 -27 295 c -41 458 -45 486 -481 3315 -305 1988 -317 2065 -309 2073 5 6 85 -21 205 -69 63 -25 65 -26 72 -70 8 -46 247 -1568 519 -3304 200 -1280 222 -1405 259 -1518 26 -77 176 -384 286 -584 l 29 -52 -19 -35 c -33 -62 -110 -150 -160 -184 -63 -42 -137 -45 -212 -7 z M 3912 -11724 c -110 119 -165 260 -187 471 l -7 72 39 10 c 202 54 430 99 951 186 433 72 758 132 954 176 984 221 1499 545 1634 1029 29 102 26 363 -5 490 -46 184 -135 402 -237 576 l -25 43 223 363 c 257 417 320 513 333 512 29 -3 758 -290 761 -299 3 -6 -56 -119 -130 -251 -73 -131 -141 -256 -150 -277 l -17 -39 69 -106 c 241 -372 326 -615 325 -927 -1 -413 -189 -787 -573 -1140 -99 -91 -301 -243 -432 -325 -133 -84 -438 -237 -553 -279 -152 -55 -235 -65 -875 -101 -985 -56 -1358 -99 -1834 -210 -92 -22 -176 -40 -186 -40 -10 0 -45 29 -78 66 z M 9255 -8810 c -342 21 -863 84 -868 104 -1 5 70 48 158 95 88 48 246 134 352 191 106 58 189 108 185 112 -10 9 -203 85 -1202 470 -470 182 -1437 555 -2148 829 -711 275 -1306 502 -1322 506 -32 6 -64 -10 -432 -214 -125 -69 -215 -113 -225 -110 -35 9 -1737 668 -1762 682 l -26 14 35 15 c 19 8 173 62 343 120 l 307 106 321 272 c 363 308 547 458 564 458 10 0 187 -67 683 -260 72 -27 84 -36 97 -66 8 -19 67 -150 131 -293 l 116 -259 167 -65 c 224 -88 4365 -1687 4467 -1725 l 80 -30 -138 391 c -76 214 -136 392 -134 395 6 5 79 -46 296 -207 424 -314 842 -684 1213 -1075 227 -239 321 -346 310 -356 -20 -19 -423 -70 -703 -90 -208 -14 -701 -20 -865 -10 z M 8530 -7503 c -37 14 -659 253 -696 268 -36 14 -41 19 -36 43 2 15 42 227 89 472 46 245 87 460 90 478 7 38 11 41 168 98 423 154 726 409 831 700 31 83 54 217 54 307 0 168 -55 398 -147 618 -162 390 -433 797 -1052 1579 -270 342 -460 593 -544 719 l -70 105 40 35 c 192 171 320 231 493 231 l 86 0 60 -87 c 87 -129 293 -402 400 -531 187 -224 360 -407 1011 -1075 371 -379 408 -429 516 -692 253 -621 315 -1251 166 -1698 -65 -197 -159 -348 -308 -498 -210 -210 -478 -348 -841 -434 l -116 -27 -53 -231 c -87 -380 -94 -398 -141 -380 z M 2550 -5858 c -43 71 -35 155 27 279 l 35 70 941 788 c 518 433 1286 1075 1707 1427 1592 1331 1870 1568 2274 1936 l 151 138 96 0 c 119 0 176 -18 223 -70 36 -40 56 -105 56 -182 0 -63 -21 -167 -36 -182 -7 -8 -55 -28 -106 -45 -265 -87 -497 -187 -614 -263 -80 -53 -571 -461 -2769 -2304 -1898 -1592 -1936 -1624 -1953 -1624 -7 0 -21 15 -32 32 z M 2657 -5058 c -74 128 -142 248 -151 266 l -17 34 23 -7 c 33 -10 331 -124 476 -181 71 -28 121 -54 120 -61 -3 -13 -297 -283 -309 -283 -4 0 -68 105 -142 232 z M 6996 -1612 c -47 93 -134 298 -160 377 -43 133 -66 253 -73 390 -7 161 6 263 53 405 42 125 92 221 182 348 78 110 66 108 238 42 167 -65 253 -120 369 -235 106 -105 186 -216 251 -347 l 38 -77 -80 -83 c -158 -165 -189 -218 -202 -337 l -7 -71 -284 -230 c -157 -126 -288 -230 -293 -230 -4 0 -18 21 -32 48 z " />
  </g>
</svg>