<?xml version="1.0" encoding="utf-8"?>
<!DOCTYPE svg PUBLIC "-//W3C//DTD SVG 20010904//EN" "http://www.w3.org/TR/2001/REC-SVG-20010904/DTD/svg10.dtd">
<svg version="1.0" width="960pt" height="960pt" viewBox="0 0 960 960" preserveAspectRatio="xMidYMid meet" xmlns="http://www.w3.org/2000/svg">
  <g transform="translate(0,960)scale(.075,.075)" fill="#FFF">
    <path id="path1" d="M 12700 -11499 c -52 46 -226 198 -385 339 -1230 1086 -2703 2336 -3508 2978 -770 615 -1756 1295 -3311 2285 -388 247 -1139 717 -1146 717 -3 0 -18 -37 -34 -82 -69 -195 -173 -341 -282 -394 -50 -24 -62 -26 -148 -22 -84 3 -102 8 -167 41 -136 67 -229 156 -229 220 0 41 15 64 104 156 44 46 105 110 134 143 54 60 142 201 142 228 0 27 -275 239 -417 322 -261 152 -900 442 -1365 619 -385 146 -643 222 -909 269 -175 30 -177 30 -217 -53 -19 -37 -56 -92 -83 -121 -51 -56 -48 -54 -351 -199 -132 -63 -306 -173 -425 -268 -107 -86 -126 -55 -37 63 30 40 89 115 130 166 146 182 354 523 468 771 87 188 139 334 235 663 115 394 138 447 280 639 351 478 807 733 1411 791 129 12 463 6 582 -11 439 -62 676 -128 894 -246 172 -93 291 -203 402 -370 85 -126 128 -218 225 -480 100 -266 125 -323 186 -415 46 -72 127 -158 160 -171 9 -4 56 -14 104 -23 315 -59 453 -222 394 -467 -19 -78 -58 -133 -117 -167 -65 -37 -135 -52 -284 -62 l -121 -7 -75 -81 c -68 -73 -189 -247 -179 -257 2 -2 231 -71 509 -154 278 -83 820 -244 1205 -359 385 -115 951 -284 1259 -376 719 -214 906 -285 1364 -516 666 -336 1163 -691 1562 -1116 663 -706 1337 -2190 1921 -4227 92 -322 222 -823 217 -839 -2 -5 -46 27 -98 73 z m -8609 7790 c 64 247 134 383 265 512 32 32 82 74 110 92 60 40 57 16 28 240 -52 392 -209 740 -439 971 -184 186 -376 276 -735 349 -209 43 -287 50 -525 50 -198 -1 -246 -4 -343 -23 -432 -86 -768 -300 -1019 -649 -78 -109 -191 -328 -229 -447 l -29 -88 58 -54 c 100 -93 304 -202 662 -354 435 -185 1220 -487 1580 -609 185 -63 498 -141 549 -138 29 2 29 4 67 148 z " />
  </g>
</svg>