<?xml version="1.0" encoding="utf-8"?>
<!DOCTYPE svg PUBLIC "-//W3C//DTD SVG 20010904//EN" "http://www.w3.org/TR/2001/REC-SVG-20010904/DTD/svg10.dtd">
<svg version="1.0" width="960pt" height="960pt" viewBox="0 0 960 960" preserveAspectRatio="xMidYMid meet" xmlns="http://www.w3.org/2000/svg">
  <g transform="translate(0,960)scale(.075,.075)" fill="#FFF">
    <path id="path1" d="M 3985 -12790 c 2195 3 3978 8 3963 13 -16 4 -149 59 -298 122 -1103 469 -2131 822 -2550 875 -52 6 -150 8 -250 4 l -165 -7 -120 -164 c -66 -91 -136 -178 -155 -193 -19 -15 -76 -83 -125 -150 -278 -378 -287 -390 -310 -390 -26 0 -99 46 -278 176 -156 114 -187 141 -187 166 0 32 33 86 156 258 161 227 214 309 214 334 0 12 43 81 95 154 52 72 102 143 111 157 l 16 25 -136 65 c -162 77 -423 181 -578 231 -624 199 -1221 226 -1808 83 -433 -106 -836 -293 -1344 -626 -114 -74 -199 -123 -214 -123 -25 0 -25 0 -18 72 9 99 51 370 87 558 361 1899 1372 3458 3029 4670 349 255 888 598 1149 730 98 49 95 54 88 -185 -4 -113 -11 -280 -17 -373 -19 -340 -11 -852 19 -1170 50 -522 186 -994 395 -1372 131 -236 340 -508 526 -686 l 101 -96 65 91 c 35 49 92 118 125 153 96 101 -174 -276 5366 7466 911 1272 1326 1849 1353 1879 l 20 23 -6155 0 c -4096 0 -6155 3 -6155 10 0 7 2141 10 6400 10 4211 0 6400 -3 6400 -10 0 -6 -83 -11 -219 -12 l -220 -3 112 -76 c 62 -42 158 -111 214 -152 112 -83 129 -110 99 -154 -9 -12 -1429 -1997 -3155 -4411 -3711 -5185 -3498 -4885 -3528 -4970 -6 -18 -52 -90 -102 -160 -50 -70 -106 -151 -125 -180 l -34 -53 53 -127 c 164 -397 557 -867 1639 -1960 367 -372 477 -488 473 -503 -5 -19 39 -19 2396 -21 1321 -2 -480 -3 -4003 -3 -5326 0 -5733 1 -2415 5 z " />
  </g>
</svg>