<?xml version="1.0" encoding="utf-8"?>
<!DOCTYPE svg PUBLIC "-//W3C//DTD SVG 20010904//EN" "http://www.w3.org/TR/2001/REC-SVG-20010904/DTD/svg10.dtd">
<svg version="1.0" width="960pt" height="960pt" viewBox="0 0 960 960" preserveAspectRatio="xMidYMid meet" xmlns="http://www.w3.org/2000/svg">
  <g transform="translate(0,960)scale(.075,.075)" fill="#FFF">
    <path id="path1" d="M 2960 -12721 c 0 43 7 147 15 232 52 517 183 1085 399 1734 150 447 343 935 400 1010 49 64 250 162 494 240 78 25 172 55 208 67 l 67 23 217 405 c 119 223 425 796 679 1275 255 479 1057 1985 1782 3347 726 1363 1514 2846 1753 3296 592 1113 578 1087 601 1086 24 -1 243 -104 255 -119 15 -19 -296 -607 -3469 -6569 l -1512 -2840 35 -82 c 96 -223 135 -388 136 -569 l 0 -131 -100 -177 c -262 -466 -611 -959 -1009 -1427 -147 -173 -542 -569 -691 -692 -129 -106 -238 -188 -251 -188 -5 0 -9 35 -9 79 z " />
  </g>
</svg>